<?xml version="1.0" encoding="UTF-8"?>
<svg id="Camada_1" data-name="Camada 1" xmlns="http://www.w3.org/2000/svg" xmlns:xlink="http://www.w3.org/1999/xlink" viewBox="0 0 958.14 638.94">
  <defs>
    <style>
      .cls-1 {
        fill: #fff;
      }

      .cls-2 {
        fill: blue;
      }

      .cls-3 {
        fill: url(#Gradiente_sem_nome_5);
      }
    </style>
    <linearGradient id="Gradiente_sem_nome_5" data-name="Gradiente sem nome 5" x1="50.57" y1="481.15" x2="285.74" y2="481.15" gradientUnits="userSpaceOnUse">
      <stop offset="0" stop-color="#0000c9"/>
      <stop offset="1" stop-color="blue"/>
    </linearGradient>
  </defs>
  <g>
    <path class="cls-2" d="m320.63,537.25v-104.04h45.36c24.28,0,36.42,9.99,36.42,29.96s-12.12,31.07-36.35,31.07h-24.62v43h-20.81Zm20.81-62.43h29.13c8.37-.14,12.67-3.95,12.9-11.44-.23-6.84-4.46-10.4-12.69-10.68h-29.34v22.13Z"/>
    <path class="cls-2" d="m416.14,537.25v-104.04h19.42v104.04h-19.42Z"/>
    <path class="cls-2" d="m455.89,537.25v-104.04h19.42v104.04h-19.42Z"/>
    <path class="cls-2" d="m496.95,476.21c8.79-5.55,18.96-8.32,30.52-8.32,8.32,0,14.91,2.31,19.77,6.94,4.86,4.62,7.28,11.56,7.28,20.81v41.62h-19.42v-5.55c-5.64,3.7-10.73,5.55-15.26,5.55-9.25,0-16.18-1.96-20.81-5.9-4.62-3.93-6.94-9.36-6.94-16.3,0-6.47,2.19-12.25,6.55-17.34,4.37-5.09,11.43-7.63,21.19-7.63,4.48,0,9.57,1.39,15.26,4.16v-2.08c-.09-5.09-3.79-7.86-11.1-8.32-8.32,0-14.8,1.39-19.42,4.16l-7.63-11.79Zm38.15,40.23v-7.84c-1.85-3.56-6.24-5.34-13.18-5.34-8.32.93-12.72,4.16-13.18,9.71.46,5.5,4.85,8.49,13.18,8.95,6.94,0,11.33-1.83,13.18-5.48Z"/>
    <path class="cls-2" d="m614.86,513.25v-45.36h19.42v63.81c0,9.71-3.01,17.83-9.02,24.35-6.01,6.52-13.18,9.97-21.5,10.34l-4.16.42c-9.71-.28-18.5-4.12-26.36-11.51l9.02-10.41c5.55,4.16,10.8,6.47,15.75,6.94,6.01,0,10.32-1.5,12.94-4.51,2.61-3.01,3.92-7.28,3.92-12.83v-3.54c-4.9,4.21-10.57,6.31-16.99,6.31-8.79,0-15.49-2.66-20.12-7.98-4.62-5.32-6.94-11.44-6.94-18.38v-43h19.42v38.15c0,4.63,1.16,8.21,3.47,10.75,2.31,2.54,5.8,3.88,10.47,4.02,4.07-.28,7.63-2.8,10.68-7.56Z"/>
    <path class="cls-2" d="m667.99,475.52c4.95-5.09,10.98-7.63,18.1-7.63,2.26,0,4.42.19,6.45.56l-3.05,19.14c-2.27-2.03-5.5-3.12-9.71-3.26-4.72.32-8.65,3.75-11.79,10.27v42.66h-19.42v-67.35l19.42-2.08v7.7Z"/>
    <path class="cls-2" d="m706.63,476.21c8.79-5.55,18.96-8.32,30.52-8.32,8.32,0,14.91,2.31,19.77,6.94,4.86,4.62,7.28,11.56,7.28,20.81v41.62h-19.42v-5.55c-5.64,3.7-10.73,5.55-15.26,5.55-9.25,0-16.18-1.96-20.81-5.9-4.62-3.93-6.94-9.36-6.94-16.3,0-6.47,2.19-12.25,6.55-17.34,4.37-5.09,11.43-7.63,21.19-7.63,4.48,0,9.57,1.39,15.26,4.16v-2.08c-.09-5.09-3.79-7.86-11.1-8.32-8.32,0-14.8,1.39-19.42,4.16l-7.63-11.79Zm38.15,40.23v-7.84c-1.85-3.56-6.24-5.34-13.18-5.34-8.32.93-12.72,4.16-13.18,9.71.46,5.5,4.85,8.49,13.18,8.95,6.94,0,11.33-1.83,13.18-5.48Z"/>
    <path class="cls-2" d="m812.89,537.25c-7.86,0-14.1-2.2-18.73-6.59-4.62-4.39-6.94-10.06-6.94-16.99v-30.03h-10.4v-15.68h10.4v-18.8l19.49-2.08v20.88h10.4v15.68h-10.4v27.26c0,3.7.77,6.3,2.32,7.8,1.55,1.5,3.55,2.25,6,2.25.74,0,2.47-.3,5.2-.9l4.09,13.94c-3.33,2.17-7.14,3.26-11.45,3.26Z"/>
    <path class="cls-2" d="m832.45,502.57c0-10.17,3.24-18.5,9.71-24.97,6.47-6.47,14.8-9.71,24.97-9.71s18.26,3.24,24.28,9.71c6.01,6.47,9.02,14.8,9.02,24.97v6.94h-47.86c.46,3.7,2.08,6.59,4.85,8.67,2.78,2.08,6.01,3.12,9.71,3.12,6.47,0,12.25-1.85,17.34-5.55l11.1,11.1c-5.09,6.94-14.57,10.4-28.44,10.4-10.17,0-18.5-3.24-24.97-9.71-6.47-6.47-9.71-14.8-9.71-24.97Zm44.39-15.61c-2.77-2.08-6.01-3.12-9.71-3.12s-6.94,1.04-9.71,3.12c-2.77,2.08-4.16,4.97-4.16,8.67h27.74c0-3.7-1.39-6.59-4.16-8.67Z"/>
    <path class="cls-2" d="m933.58,475.52c4.95-5.09,10.98-7.63,18.1-7.63,2.26,0,4.42.19,6.45.56l-3.05,19.14c-2.27-2.03-5.5-3.12-9.71-3.26-4.72.32-8.65,3.75-11.79,10.27v42.66h-19.42v-67.35l19.42-2.08v7.7Z"/>
  </g>
  <g>
    <text/>
    <path class="cls-3" d="m226.17,363.56h-116.02c-7.61,0-14.89,1.43-21.57,4.04-8.29,3.21-15.67,8.23-21.68,14.57-4.73,4.99-8.61,10.81-11.38,17.2-3.18,7.28-4.94,15.31-4.94,23.76v116.02c0,6.28.98,12.33,2.78,18.01,2.65,8.37,7.11,15.94,12.9,22.25,4.66,5.09,10.19,9.35,16.37,12.57,8.23,4.31,17.6,6.74,27.53,6.74h116.02c32.9,0,59.58-26.68,59.58-59.58v-116.02c0-32.9-26.68-59.58-59.58-59.58Zm-24.44,230.81h-91.58c-8.89,0-17.72-2.16-25.52-6.25-5.71-2.96-10.81-6.88-15.17-11.65-4.69-5.12-8.42-11.16-10.9-17.6,26.43-18.74,42.1-48.89,42.1-81.33s-14.76-60.73-39.67-79.57c2.39-4.67,5.43-8.96,9.07-12.8,5.6-5.91,12.55-10.58,20.1-13.51,6.36-2.48,13.08-3.75,19.99-3.75h102.34c16.62,12.3,30.42,28.41,39.97,46.69,10.09,19.29,15.43,41.06,15.43,62.94,0,24.1-6.4,47.8-18.52,68.54-11.56,19.79-28.02,36.47-47.64,48.3Z"/>
    <g>
      <path class="cls-1" d="m252.46,414.6c-9.55-18.27-23.35-34.39-39.97-46.69h-102.34c-6.91,0-13.63,1.26-19.99,3.75-7.55,2.93-14.5,7.6-20.1,13.51-3.64,3.84-6.68,8.14-9.07,12.8,24.9,18.84,39.67,48.31,39.67,79.57s-15.67,62.6-42.1,81.33c2.47,6.45,6.2,12.48,10.9,17.6,4.36,4.76,9.47,8.68,15.17,11.65,7.8,4.09,16.63,6.25,25.52,6.25h91.58c19.62-11.83,36.09-28.51,47.64-48.3,12.12-20.74,18.52-44.44,18.52-68.54,0-21.88-5.33-43.65-15.43-62.94Zm-134.87,148.39l-18.07,10.89,12.29-17.15c16.63-23.23,25.42-50.61,25.42-79.19s-8.8-55.96-25.42-79.19l-12.29-17.15,18.07,10.89c29.84,17.98,48.38,50.72,48.38,85.45s-18.54,67.48-48.38,85.45Zm65.32,0l-18.07,10.89,12.29-17.15c16.63-23.23,25.42-50.61,25.42-79.19s-8.8-55.96-25.42-79.19l-12.29-17.15,18.07,10.89c29.84,17.98,48.38,50.72,48.38,85.45s-18.54,67.48-48.38,85.45Z"/>
      <path class="cls-2" d="m231.3,477.54c0,34.74-18.54,67.48-48.38,85.45l-18.07,10.89,12.29-17.15c16.63-23.23,25.42-50.61,25.42-79.19s-8.8-55.96-25.42-79.19l-12.29-17.15,18.07,10.89c29.84,17.98,48.38,50.72,48.38,85.45Z"/>
      <path class="cls-2" d="m165.98,477.54c0,34.74-18.54,67.48-48.38,85.45l-18.07,10.89,12.29-17.15c16.63-23.23,25.42-50.61,25.42-79.19s-8.8-55.96-25.42-79.19l-12.29-17.15,18.07,10.89c29.84,17.98,48.38,50.72,48.38,85.45Z"/>
    </g>
  </g>
</svg>